<svg width="105" height="46" viewBox="0 0 105 46" fill="none" xmlns="http://www.w3.org/2000/svg">
<path d="M16.6913 41.9411C26.4382 41.9411 32.1176 36.3497 32.1176 27.3608V26.5116C32.1176 24.7893 31.0513 23.7513 29.34 23.7513H19.4194C17.9809 23.7513 16.9888 24.6005 16.9888 25.8982C16.9888 27.1721 17.9809 28.0214 19.4194 28.0214H26.6366V28.6113C26.5622 33.7781 22.5444 37.3169 16.7408 37.3169C9.92053 37.3169 5.67951 32.2917 5.67951 24.1523C5.67951 16.1545 9.79652 11.3888 16.6417 11.3888C20.7835 11.3888 23.9581 13.2526 25.7685 16.8623C26.4631 18.1834 27.2814 18.7496 28.5463 18.7496C30.0592 18.7496 31.0265 17.8059 31.0265 16.4139C31.0265 15.8242 30.952 15.2344 30.6297 14.4794C28.6456 9.92599 23.2885 6.76465 16.6169 6.76465C6.42354 6.76465 0 13.4649 0 24.1995C0 35.1228 6.44834 41.9411 16.6913 41.9411Z" fill="#7000FF"/>
<path d="M42.1091 44.647C45.0462 44.6565 46.8669 43.1911 46.8669 40.9881V31.5053C46.8669 31.269 46.6826 31.1177 46.4442 31.1177C46.2059 31.1177 46.0215 31.269 46.0215 31.5053V33.8312H45.9999C45.4796 32.3468 43.9407 31.1177 41.8056 31.1177C38.9985 31.1177 37.0586 33.1504 37.0586 36.1759C37.0586 39.1918 38.9877 41.2245 41.7948 41.2245C43.8973 41.2245 45.5014 40.0237 45.9999 38.4922H46.0215V41.0165C46.0215 42.8129 44.5367 44.0136 42.1416 44.0041C40.31 44.0041 39.1395 43.2572 38.5759 42.2929C38.4566 42.1132 38.3483 42.0376 38.1857 42.0376C37.9365 42.0376 37.7847 42.1699 37.7847 42.3684C37.7847 42.4819 37.8173 42.5859 37.8932 42.6994C38.4566 43.7773 39.9416 44.647 42.1091 44.647ZM41.9248 40.5627C39.5296 40.5627 37.904 38.8042 37.904 36.1853C37.904 33.5474 39.5296 31.7795 41.9248 31.7795C44.3309 31.7795 46.0215 33.5758 46.0215 36.1759C46.0215 38.7663 44.3417 40.5627 41.9248 40.5627ZM52.7627 41.2529C54.6485 41.2529 56.3392 40.3263 56.9137 38.9933H56.9353V40.8652C56.9353 41.1016 57.0979 41.2529 57.3363 41.2529C57.5748 41.2529 57.7481 41.1016 57.7481 40.8652V34.4552C57.7481 32.4035 56.22 31.1177 53.7382 31.1177C51.6248 31.1177 50.1508 32.0254 49.6414 33.3111C49.5547 33.5097 49.4897 33.7365 49.4897 33.8878C49.4897 34.0959 49.6414 34.2282 49.8689 34.2282C50.0532 34.2282 50.1724 34.1432 50.2375 33.9729C50.6927 32.4791 51.9281 31.7795 53.7274 31.7795C55.7214 31.7795 56.9029 32.8101 56.9029 34.5118V35.3912L53.0228 35.6275C50.4 35.7976 49.0345 36.7999 49.0345 38.4543C49.0345 40.1089 50.5626 41.2529 52.7627 41.2529ZM52.8928 40.6099C51.1371 40.6099 49.8799 39.7307 49.8799 38.4165C49.8799 37.1779 51.0178 36.3744 53.1421 36.2325L56.9029 35.9962V37.4522C56.9029 39.2012 55.0928 40.6099 52.8928 40.6099ZM60.5877 41.2529C60.8369 41.2529 61.0103 41.0922 61.0103 40.8558V35.2304C61.0103 33.1409 62.3218 31.7795 64.2076 31.7795C65.9307 31.7795 67.1555 32.9046 67.1555 34.6064V40.8558C67.1555 41.0922 67.318 41.2529 67.5673 41.2529C67.8274 41.2529 67.9899 41.0922 67.9899 40.8558V34.9845C67.9899 33.0937 69.2796 31.7795 71.1764 31.7795C73.0188 31.7795 74.1351 32.8668 74.1351 34.6347V40.8558C74.1351 41.0922 74.2976 41.2529 74.5577 41.2529C74.807 41.2529 74.9805 41.0922 74.9805 40.8558V34.4646C74.9805 32.4225 73.5389 31.1177 71.3714 31.1177C69.529 31.1177 68.1851 32.1861 67.7949 33.4529H67.7623C67.4264 32.1483 66.1583 31.1177 64.381 31.1177C62.6035 31.1177 61.4005 32.1009 60.9779 33.4057H60.9561V31.4959C60.9561 31.269 60.7935 31.1177 60.5551 31.1177C60.3276 31.1177 60.1649 31.269 60.1649 31.4959V40.8558C60.1649 41.0922 60.3276 41.2529 60.5877 41.2529ZM81.9167 41.2529C84.095 41.2529 85.7858 40.3075 86.3277 38.8042C86.3602 38.7191 86.3928 38.6056 86.3928 38.5394C86.3928 38.3409 86.2301 38.2086 86.0134 38.2086C85.8291 38.2086 85.7316 38.2936 85.6665 38.4259C85.1246 39.8064 83.7482 40.6005 81.8842 40.6005C79.3264 40.6005 77.6899 39.0217 77.6899 36.3082H86.0134C86.3928 36.3082 86.6094 36.1191 86.6094 35.7976C86.6094 33.0181 84.6479 31.1177 81.7757 31.1177C78.7954 31.1177 76.8337 33.1125 76.8337 36.2325C76.8337 39.3903 78.7846 41.2529 81.9167 41.2529ZM77.7007 35.6936C77.8199 33.3301 79.4348 31.7701 81.7757 31.7701C84.1384 31.7701 85.7316 33.3585 85.7424 35.6936H77.7007ZM92.2235 41.2529C94.662 41.2529 96.3527 40.1278 96.3527 38.5016C96.3527 37.1307 95.4748 36.4122 93.2098 35.9489L91.6599 35.6275C89.8608 35.2587 89.1022 34.7009 89.1022 33.7555C89.1022 32.5926 90.3702 31.7511 92.126 31.7511C93.9251 31.7511 94.9439 32.6682 95.3231 33.8217C95.4206 34.1053 95.5399 34.1904 95.7349 34.1904C95.9517 34.1904 96.0818 34.0675 96.0818 33.8594C96.0818 33.7933 96.071 33.7083 96.0492 33.6231C95.7133 32.1199 94.2068 31.1177 92.1694 31.1177C89.8716 31.1177 88.2676 32.2239 88.2676 33.7839C88.2676 35.0508 89.2648 35.8355 91.4323 36.2703L92.9822 36.5918C94.792 36.9606 95.5073 37.5089 95.5073 38.549C95.5073 39.778 94.1418 40.6195 92.2777 40.6195C90.5002 40.6195 89.2538 39.8726 88.7879 38.615C88.6796 38.3409 88.5711 38.2274 88.3653 38.2274C88.1377 38.2274 87.9859 38.3598 87.9859 38.5678C87.9859 38.634 87.9967 38.7191 88.0184 38.7853C88.4194 40.2696 90.0776 41.2529 92.2235 41.2529Z" fill="white"/>
<path d="M40.5503 21.6469C41.9125 21.6469 42.9593 21.1346 43.4396 20.2317C43.497 20.11 43.5328 19.9947 43.5328 19.9052C43.5328 19.6106 43.3105 19.4185 42.9807 19.4185C42.7872 19.4185 42.6438 19.4825 42.5147 19.6426C41.934 20.3981 41.389 20.68 40.5001 20.68C39.1666 20.68 38.3419 19.8475 38.3419 18.5028H43.0023C43.4324 18.5028 43.6905 18.2595 43.6905 17.8561C43.6905 16.0312 42.3498 14.7569 40.4427 14.7569C38.385 14.7569 37.0586 16.1271 37.0586 18.2275C37.0586 20.379 38.3491 21.6469 40.5503 21.6469ZM38.3491 17.632C38.428 16.4857 39.2597 15.7238 40.4213 15.7238C41.5755 15.7238 42.3714 16.4794 42.4 17.632H38.3491ZM45.5762 21.6469C45.9418 21.6469 46.1999 21.4035 46.1999 21.0513V17.395C46.1999 16.5434 46.6804 15.8198 47.806 15.8198C48.0784 15.8198 48.2719 15.775 48.401 15.6789C48.5301 15.5893 48.5947 15.4612 48.5947 15.2884C48.5947 15.1347 48.5445 15.0065 48.4368 14.917C48.315 14.8144 48.1214 14.7569 47.8491 14.7569C47.1033 14.7569 46.372 15.2691 46.1569 15.9607H46.1283V15.3204C46.1283 14.9874 45.8846 14.7569 45.5404 14.7569C45.1962 14.7569 44.9524 14.9874 44.9524 15.3204V21.0513C44.9524 21.4035 45.2106 21.6469 45.5762 21.6469ZM50.1074 21.6469C50.4874 21.6469 50.7311 21.3907 50.7311 21.0513V17.3566C50.7311 16.4345 51.4481 15.7429 52.4376 15.7429C53.3624 15.7429 53.9647 16.268 53.9647 17.0685V21.0513C53.9647 21.3907 54.2085 21.6469 54.5885 21.6469C54.9685 21.6469 55.2122 21.3907 55.2122 21.0513V17.299C55.2122 16.3961 55.9077 15.7429 56.8972 15.7429C57.8794 15.7429 58.4458 16.2808 58.4458 17.1902V21.0513C58.4458 21.3907 58.6896 21.6469 59.0696 21.6469C59.4495 21.6469 59.6934 21.3907 59.6934 21.0513V16.9339C59.6934 15.6149 58.7397 14.7569 57.2628 14.7569C56.216 14.7569 55.3413 15.2307 54.9255 16.0247H54.8968C54.5741 15.2178 53.8213 14.7569 52.8033 14.7569C51.7995 14.7569 51.0395 15.2307 50.6881 15.935H50.6595V15.3204C50.6595 14.9874 50.4157 14.7569 50.0715 14.7569C49.7275 14.7569 49.4836 14.9874 49.4836 15.3204V21.0513C49.4836 21.3907 49.7275 21.6469 50.1074 21.6469ZM63.4573 21.6469C64.4611 21.6469 65.4146 21.1473 65.8592 20.3854H65.8879V21.0833C65.8879 21.4163 66.1316 21.6469 66.483 21.6469C66.8272 21.6469 67.0709 21.4163 67.0709 21.0833V16.9276C67.0709 15.6021 65.9667 14.7569 64.2173 14.7569C63.0057 14.7569 61.9158 15.2371 61.4928 15.967C61.3925 16.1271 61.3423 16.2873 61.3423 16.4281C61.3423 16.7291 61.5718 16.9276 61.8944 16.9276C62.131 16.9276 62.2959 16.8444 62.4105 16.6587C62.8265 15.999 63.3785 15.7366 64.1887 15.7366C65.2211 15.7366 65.8234 16.2231 65.8234 17.0365V17.5936L63.6796 17.7024C61.9589 17.792 60.9767 18.5092 60.9767 19.6491C60.9767 20.8464 61.9733 21.6469 63.4573 21.6469ZM63.737 20.6991C62.8408 20.6991 62.2456 20.283 62.2456 19.6491C62.2456 19.0214 62.8193 18.6245 63.8231 18.5669L65.8234 18.4579V19.0023C65.8234 19.9627 64.9128 20.6991 63.737 20.6991ZM69.2792 21.6469C69.6448 21.6469 69.9029 21.4035 69.9029 21.0513V17.6127C69.9029 16.4857 70.67 15.7429 71.8459 15.7429C72.9931 15.7429 73.5594 16.3321 73.5594 17.4079V21.0513C73.5594 21.4035 73.8176 21.6469 74.1832 21.6469C74.5488 21.6469 74.8069 21.4035 74.8069 21.0513V17.2093C74.8069 15.6982 73.8606 14.7569 72.2259 14.7569C71.0716 14.7569 70.2758 15.2178 69.8599 15.935H69.8313V15.3204C69.8313 14.9874 69.5874 14.7569 69.2434 14.7569C68.8992 14.7569 68.6554 14.9874 68.6554 15.3204V21.0513C68.6554 21.4035 68.9136 21.6469 69.2792 21.6469ZM79.2234 21.6469C80.3921 21.6469 81.1665 21.1346 81.5751 20.3406H81.5967V21.1026C81.5967 21.4292 81.8835 21.6469 82.2347 21.6469C82.5933 21.6469 82.8442 21.4227 82.8442 21.1026V12.7718C82.8442 12.4197 82.5861 12.1763 82.2205 12.1763C81.8547 12.1763 81.5967 12.4197 81.5967 12.7718V15.9543H81.5679C81.1235 15.2242 80.2632 14.7569 79.1948 14.7569C77.3163 14.7569 76.033 16.1143 76.033 18.2018C76.033 20.2893 77.3235 21.6469 79.2234 21.6469ZM79.4601 20.6671C78.1408 20.6671 77.3091 19.7131 77.3091 18.2018C77.3091 16.6971 78.1408 15.7366 79.4601 15.7366C80.7435 15.7366 81.6038 16.7162 81.6038 18.2018C81.6038 19.6938 80.7435 20.6671 79.4601 20.6671ZM85.2174 13.7515C85.6475 13.7515 85.9988 13.4377 85.9988 13.0599C85.9988 12.6758 85.6475 12.3684 85.2174 12.3684C84.7943 12.3684 84.443 12.6758 84.443 13.0599C84.443 13.4377 84.7943 13.7515 85.2174 13.7515ZM85.2174 21.6469C85.583 21.6469 85.8411 21.4035 85.8411 21.0513V15.3524C85.8411 15.0001 85.583 14.7569 85.2174 14.7569C84.8518 14.7569 84.5936 15.0001 84.5936 15.3524V21.0513C84.5936 21.4035 84.8518 21.6469 85.2174 21.6469ZM88.2143 21.6469C88.5799 21.6469 88.838 21.4035 88.838 21.0513V12.7718C88.838 12.4197 88.5799 12.1763 88.2143 12.1763C87.8487 12.1763 87.5905 12.4197 87.5905 12.7718V21.0513C87.5905 21.4035 87.8487 21.6469 88.2143 21.6469ZM91.2112 13.7515C91.6414 13.7515 91.9926 13.4377 91.9926 13.0599C91.9926 12.6758 91.6414 12.3684 91.2112 12.3684C90.7882 12.3684 90.4369 12.6758 90.4369 13.0599C90.4369 13.4377 90.7882 13.7515 91.2112 13.7515ZM91.2112 21.6469C91.5768 21.6469 91.8349 21.4035 91.8349 21.0513V15.3524C91.8349 15.0001 91.5768 14.7569 91.2112 14.7569C90.8456 14.7569 90.5874 15.0001 90.5874 15.3524V21.0513C90.5874 21.4035 90.8456 21.6469 91.2112 21.6469ZM96.61 21.6469C98.6676 21.6469 100.059 20.3213 100.059 18.2018C100.059 16.0759 98.6676 14.7569 96.61 14.7569C94.5451 14.7569 93.1541 16.0759 93.1541 18.2018C93.1541 20.3213 94.5451 21.6469 96.61 21.6469ZM96.61 20.6671C95.2907 20.6671 94.4232 19.7706 94.4232 18.2018C94.4232 16.633 95.2907 15.7366 96.61 15.7366C97.9292 15.7366 98.7895 16.633 98.7895 18.2018C98.7895 19.7706 97.9292 20.6671 96.61 20.6671Z" fill="white"/>
</svg>
