<svg width="146" height="63" viewBox="0 0 146 63" fill="none" xmlns="http://www.w3.org/2000/svg">
<path d="M23.2089 57.4411C36.7618 57.4411 44.6588 49.7833 44.6588 37.4725V36.3093C44.6588 33.9505 43.1761 32.5289 40.7966 32.5289H27.0022C25.002 32.5289 23.6226 33.6921 23.6226 35.4693C23.6226 37.214 25.002 38.3772 27.0022 38.3772H37.0376V39.1851C36.9341 46.2613 31.3475 51.1079 23.2777 51.1079C13.7943 51.1079 7.89722 44.2256 7.89722 33.0782C7.89722 22.1247 13.6218 15.5977 23.1399 15.5977C28.899 15.5977 33.3132 18.1503 35.8305 23.094C36.7963 24.9034 37.9342 25.6788 39.693 25.6788C41.7966 25.6788 43.1416 24.3863 43.1416 22.4799C43.1416 21.6722 43.038 20.8645 42.5899 19.8305C39.831 13.5943 32.3821 9.26465 23.1054 9.26465C8.93178 9.26465 0 18.4411 0 33.1428C0 48.103 8.96627 57.4411 23.2089 57.4411Z" fill="#7000FF"/>
<path d="M58.5519 61.147C62.6359 61.1599 65.1675 59.153 65.1675 56.1359V43.1486C65.1675 42.8249 64.9113 42.6177 64.5798 42.6177C64.2484 42.6177 63.992 42.8249 63.992 43.1486V46.334H63.9619C63.2385 44.3011 61.0987 42.6177 58.1299 42.6177C54.2267 42.6177 51.5293 45.4016 51.5293 49.5452C51.5293 53.6757 54.2117 56.4596 58.1148 56.4596C61.0384 56.4596 63.2688 54.8151 63.9619 52.7175H63.992V56.1748C63.992 58.635 61.9275 60.2795 58.5971 60.2664C56.0503 60.2664 54.4228 59.2435 53.6391 57.9229C53.4733 57.6768 53.3226 57.5732 53.0965 57.5732C52.75 57.5732 52.5389 57.7544 52.5389 58.0263C52.5389 58.1817 52.5842 58.3242 52.6897 58.4796C53.4733 59.9558 55.538 61.147 58.5519 61.147ZM58.2957 55.5532C54.9652 55.5532 52.7048 53.1448 52.7048 49.5581C52.7048 45.9454 54.9652 43.5241 58.2957 43.5241C61.6413 43.5241 63.992 45.9843 63.992 49.5452C63.992 53.093 61.6563 55.5532 58.2957 55.5532ZM73.3655 56.4985C75.9876 56.4985 78.3386 55.2295 79.1373 53.4038H79.1673V55.9676C79.1673 56.2913 79.3935 56.4985 79.7249 56.4985C80.0566 56.4985 80.2975 56.2913 80.2975 55.9676V47.1886C80.2975 44.3787 78.1727 42.6177 74.7218 42.6177C71.7833 42.6177 69.7337 43.8609 69.0253 45.6217C68.9048 45.8938 68.8144 46.2044 68.8144 46.4116C68.8144 46.6966 69.0253 46.8778 69.3418 46.8778C69.5979 46.8778 69.7638 46.7613 69.8543 46.5281C70.4872 44.4823 72.2051 43.5241 74.7068 43.5241C77.4795 43.5241 79.1223 44.9356 79.1223 47.2662V48.4705L73.7272 48.7942C70.0802 49.0272 68.1815 50.3998 68.1815 52.6657C68.1815 54.9318 70.3064 56.4985 73.3655 56.4985ZM73.5464 55.6179C71.1051 55.6179 69.357 54.4138 69.357 52.6139C69.357 50.9176 70.9393 49.8171 73.8931 49.6228L79.1223 49.2991V51.2933C79.1223 53.6886 76.6055 55.6179 73.5464 55.6179ZM84.246 56.4985C84.5924 56.4985 84.8336 56.2784 84.8336 55.9547V48.2504C84.8336 45.3887 86.6572 43.5241 89.2793 43.5241C91.6753 43.5241 93.3783 45.065 93.3783 47.3958V55.9547C93.3783 56.2784 93.6042 56.4985 93.9509 56.4985C94.3126 56.4985 94.5386 56.2784 94.5386 55.9547V47.9136C94.5386 45.324 96.3319 43.5241 98.9693 43.5241C101.531 43.5241 103.083 45.0132 103.083 47.4345V55.9547C103.083 56.2784 103.309 56.4985 103.671 56.4985C104.018 56.4985 104.259 56.2784 104.259 55.9547V47.2015C104.259 44.4047 102.254 42.6177 99.2404 42.6177C96.6786 42.6177 94.8099 44.081 94.2674 45.816H94.2221C93.755 44.0292 91.9917 42.6177 89.5204 42.6177C87.0489 42.6177 85.3762 43.9643 84.7885 45.7513H84.7583V43.1357C84.7583 42.8249 84.5322 42.6177 84.2007 42.6177C83.8842 42.6177 83.6581 42.8249 83.6581 43.1357V55.9547C83.6581 56.2784 83.8842 56.4985 84.246 56.4985ZM113.903 56.4985C116.932 56.4985 119.283 55.2037 120.037 53.1448C120.082 53.0283 120.127 52.8729 120.127 52.7822C120.127 52.5103 119.901 52.3291 119.6 52.3291C119.344 52.3291 119.208 52.4456 119.117 52.6268C118.364 54.5174 116.45 55.605 113.858 55.605C110.302 55.605 108.026 53.4427 108.026 49.7264H119.6C120.127 49.7264 120.429 49.4674 120.429 49.0272C120.429 45.2204 117.701 42.6177 113.707 42.6177C109.563 42.6177 106.836 45.3498 106.836 49.6228C106.836 53.9476 109.548 56.4985 113.903 56.4985ZM108.041 48.8847C108.207 45.6477 110.452 43.5112 113.707 43.5112C116.993 43.5112 119.208 45.6866 119.223 48.8847H108.041ZM128.235 56.4985C131.625 56.4985 133.976 54.9576 133.976 52.7304C133.976 50.8529 132.756 49.8689 129.606 49.2344L127.451 48.7942C124.95 48.2891 123.895 47.5252 123.895 46.2304C123.895 44.6377 125.658 43.4852 128.099 43.4852C130.601 43.4852 132.017 44.7413 132.545 46.3211C132.68 46.7095 132.846 46.826 133.117 46.826C133.419 46.826 133.6 46.6577 133.6 46.3727C133.6 46.2822 133.585 46.1657 133.554 46.049C133.087 43.9903 130.993 42.6177 128.159 42.6177C124.965 42.6177 122.734 44.1328 122.734 46.2693C122.734 48.0043 124.121 49.079 127.135 49.6746L129.29 50.1148C131.806 50.6199 132.801 51.3709 132.801 52.7953C132.801 54.4785 130.902 55.631 128.31 55.631C125.839 55.631 124.106 54.6081 123.458 52.8858C123.307 52.5103 123.156 52.3549 122.87 52.3549C122.554 52.3549 122.342 52.5363 122.342 52.8211C122.342 52.9118 122.357 53.0283 122.388 53.119C122.945 55.1519 125.251 56.4985 128.235 56.4985Z" fill="white"/>
<path d="M56.3845 29.6469C58.2786 29.6469 59.7341 28.9453 60.4019 27.7087C60.4818 27.5421 60.5316 27.3842 60.5316 27.2615C60.5316 26.8581 60.2225 26.595 59.7639 26.595C59.4948 26.595 59.2953 26.6826 59.1159 26.9019C58.3084 27.9366 57.5507 28.3226 56.3146 28.3226C54.4604 28.3226 53.3137 27.1825 53.3137 25.3408H59.7939C60.3919 25.3408 60.7509 25.0076 60.7509 24.4552C60.7509 21.9558 58.8866 20.2106 56.2348 20.2106C53.3736 20.2106 51.5293 22.0872 51.5293 24.9638C51.5293 27.9104 53.3238 29.6469 56.3845 29.6469ZM53.3238 24.1482C53.4334 22.5783 54.5898 21.5348 56.205 21.5348C57.81 21.5348 58.9166 22.5697 58.9564 24.1482H53.3238ZM63.3728 29.6469C63.8812 29.6469 64.2401 29.3135 64.2401 28.8313V23.8237C64.2401 22.6573 64.9082 21.6663 66.4734 21.6663C66.8521 21.6663 67.1212 21.605 67.3007 21.4734C67.4801 21.3507 67.57 21.1752 67.57 20.9385C67.57 20.728 67.5001 20.5525 67.3505 20.4299C67.181 20.2894 66.9119 20.2106 66.5332 20.2106C65.4962 20.2106 64.4794 20.9121 64.1803 21.8593H64.1405V20.9823C64.1405 20.5263 63.8016 20.2106 63.323 20.2106C62.8444 20.2106 62.5055 20.5263 62.5055 20.9823V28.8313C62.5055 29.3135 62.8644 29.6469 63.3728 29.6469ZM69.6733 29.6469C70.2017 29.6469 70.5406 29.2961 70.5406 28.8313V23.7711C70.5406 22.5082 71.5376 21.561 72.9135 21.561C74.1994 21.561 75.0369 22.2801 75.0369 23.3765V28.8313C75.0369 29.2961 75.3758 29.6469 75.9042 29.6469C76.4326 29.6469 76.7715 29.2961 76.7715 28.8313V23.6922C76.7715 22.4556 77.7385 21.561 79.1144 21.561C80.4801 21.561 81.2678 22.2977 81.2678 23.5431V28.8313C81.2678 29.2961 81.6067 29.6469 82.1351 29.6469C82.6633 29.6469 83.0024 29.2961 83.0024 28.8313V23.1922C83.0024 21.3857 81.6763 20.2106 79.6228 20.2106C78.1672 20.2106 76.951 20.8595 76.3728 21.947H76.333C75.8842 20.8419 74.8374 20.2106 73.4219 20.2106C72.0262 20.2106 70.9694 20.8595 70.4808 21.8241H70.441V20.9823C70.441 20.5263 70.1021 20.2106 69.6235 20.2106C69.1451 20.2106 68.806 20.5263 68.806 20.9823V28.8313C68.806 29.2961 69.1451 29.6469 69.6733 29.6469ZM88.2361 29.6469C89.6318 29.6469 90.9577 28.9627 91.5759 27.9192H91.6157V28.8751C91.6157 29.3311 91.9547 29.6469 92.4432 29.6469C92.9218 29.6469 93.2607 29.3311 93.2607 28.8751V23.1836C93.2607 21.3681 91.7254 20.2106 89.2929 20.2106C87.6081 20.2106 86.0927 20.8683 85.5045 21.868C85.3651 22.0872 85.2952 22.3065 85.2952 22.4994C85.2952 22.9116 85.6143 23.1836 86.0629 23.1836C86.3918 23.1836 86.6211 23.0695 86.7806 22.8152C87.359 21.9118 88.1265 21.5524 89.2531 21.5524C90.6886 21.5524 91.5261 22.2187 91.5261 23.3326V24.0956L88.5452 24.2447C86.1525 24.3673 84.7868 25.3496 84.7868 26.9107C84.7868 28.5505 86.1726 29.6469 88.2361 29.6469ZM88.6251 28.3488C87.3788 28.3488 86.5513 27.779 86.5513 26.9107C86.5513 26.0512 87.349 25.5075 88.7447 25.4286L91.5261 25.2794V26.0249C91.5261 27.3404 90.2598 28.3488 88.6251 28.3488ZM96.3313 29.6469C96.8396 29.6469 97.1986 29.3135 97.1986 28.8313V24.1218C97.1986 22.5783 98.2652 21.561 99.9002 21.561C101.495 21.561 102.283 22.368 102.283 23.8413V28.8313C102.283 29.3135 102.642 29.6469 103.15 29.6469C103.659 29.6469 104.017 29.3135 104.017 28.8313V23.5694C104.017 21.4998 102.702 20.2106 100.429 20.2106C98.8236 20.2106 97.717 20.8419 97.1388 21.8241H97.0989V20.9823C97.0989 20.5263 96.7598 20.2106 96.2814 20.2106C95.8029 20.2106 95.4639 20.5263 95.4639 20.9823V28.8313C95.4639 29.3135 95.8229 29.6469 96.3313 29.6469ZM110.159 29.6469C111.784 29.6469 112.86 28.9453 113.429 27.8578H113.459V28.9015C113.459 29.3487 113.857 29.6469 114.346 29.6469C114.844 29.6469 115.193 29.3399 115.193 28.9015V17.4919C115.193 17.0096 114.834 16.6763 114.326 16.6763C113.817 16.6763 113.459 17.0096 113.459 17.4919V21.8505H113.418C112.8 20.8507 111.604 20.2106 110.119 20.2106C107.507 20.2106 105.722 22.0696 105.722 24.9286C105.722 27.7876 107.517 29.6469 110.159 29.6469ZM110.488 28.305C108.653 28.305 107.497 26.9984 107.497 24.9286C107.497 22.8678 108.653 21.5524 110.488 21.5524C112.272 21.5524 113.468 22.894 113.468 24.9286C113.468 26.972 112.272 28.305 110.488 28.305ZM118.493 18.8337C119.091 18.8337 119.58 18.4039 119.58 17.8865C119.58 17.3604 119.091 16.9394 118.493 16.9394C117.905 16.9394 117.416 17.3604 117.416 17.8865C117.416 18.4039 117.905 18.8337 118.493 18.8337ZM118.493 29.6469C119.001 29.6469 119.36 29.3135 119.36 28.8313V21.0261C119.36 20.5437 119.001 20.2106 118.493 20.2106C117.985 20.2106 117.626 20.5437 117.626 21.0261V28.8313C117.626 29.3135 117.985 29.6469 118.493 29.6469ZM122.66 29.6469C123.168 29.6469 123.527 29.3135 123.527 28.8313V17.4919C123.527 17.0096 123.168 16.6763 122.66 16.6763C122.152 16.6763 121.793 17.0096 121.793 17.4919V28.8313C121.793 29.3135 122.152 29.6469 122.66 29.6469ZM126.827 18.8337C127.425 18.8337 127.914 18.4039 127.914 17.8865C127.914 17.3604 127.425 16.9394 126.827 16.9394C126.239 16.9394 125.751 17.3604 125.751 17.8865C125.751 18.4039 126.239 18.8337 126.827 18.8337ZM126.827 29.6469C127.336 29.6469 127.695 29.3135 127.695 28.8313V21.0261C127.695 20.5437 127.336 20.2106 126.827 20.2106C126.319 20.2106 125.96 20.5437 125.96 21.0261V28.8313C125.96 29.3135 126.319 29.6469 126.827 29.6469ZM134.334 29.6469C137.195 29.6469 139.129 27.8314 139.129 24.9286C139.129 22.017 137.195 20.2106 134.334 20.2106C131.463 20.2106 129.529 22.017 129.529 24.9286C129.529 27.8314 131.463 29.6469 134.334 29.6469ZM134.334 28.305C132.5 28.305 131.293 27.0772 131.293 24.9286C131.293 22.78 132.5 21.5524 134.334 21.5524C136.168 21.5524 137.365 22.78 137.365 24.9286C137.365 27.0772 136.168 28.305 134.334 28.305Z" fill="white"/>
</svg>
